<svg width="64" height="64" viewBox="0 0 64 64" fill="none" xmlns="http://www.w3.org/2000/svg">
  <rect width="64" height="64" rx="20" fill="#0F172A"/>
  <path d="M32 16C23.2 16 16 23.2 16 32C16 40.8 23.2 48 32 48C35 48 37.9 47.2 40.3 45.6L44.1 49.4L48 45.5L44.3 41.8C46.1 39.1 47.1 35.7 47.1 32C47.1 23.2 39.9 16 32 16ZM32 21.2C37.1 21.2 41.2 25.3 41.2 30.4C41.2 35.5 37.1 39.6 32 39.6C26.9 39.6 22.8 35.5 22.8 30.4C22.8 25.3 26.9 21.2 32 21.2Z" fill="url(#qGradient)"/>
  <defs>
    <linearGradient id="qGradient" x1="16" y1="16" x2="49" y2="49" gradientUnits="userSpaceOnUse">
      <stop stop-color="#38BDF8"/>
      <stop offset="1" stop-color="#818CF8"/>
    </linearGradient>
  </defs>
</svg>
